<svg version="1.1" id="Layer_1" xmlns="http://www.w3.org/2000/svg" xmlns:xlink="http://www.w3.org/1999/xlink" x="0px" y="0px"
	 width="100%" viewBox="0 0 753 753" enable-background="new 0 0 753 753" xml:space="preserve">
<path fill="#060910" opacity="1.000000" stroke="none" 
	d="
M472.000000,754.000000 
	C314.666656,754.000000 157.833328,754.000000 1.000000,754.000000 
	C1.000000,503.000000 1.000000,252.000000 1.000000,1.000000 
	C252.000000,1.000000 503.000000,1.000000 754.000000,1.000000 
	C754.000000,252.000000 754.000000,503.000000 754.000000,754.000000 
	C660.166687,754.000000 566.333313,754.000000 472.000000,754.000000 
M492.635742,265.769043 
	C495.123260,262.853302 497.610779,259.937531 500.536011,256.839294 
	C500.796021,256.629059 500.944550,256.357758 501.580322,255.723541 
	C509.033081,247.421021 516.556824,239.180420 523.892212,230.775497 
	C525.902649,228.471985 527.399658,227.722244 530.578247,229.110291 
	C537.211670,232.006882 544.307068,231.949829 551.087463,229.494843 
	C564.733765,224.553909 572.516968,209.159576 568.868225,194.930939 
	C565.109924,180.275009 550.729370,171.488083 534.824768,174.129486 
	C521.675354,176.313324 511.016144,190.059647 512.224548,204.085190 
	C512.562988,208.013184 511.412109,209.592636 508.177673,211.314163 
	C448.520599,243.066635 388.923157,274.931183 329.350342,306.841553 
	C326.483582,308.377106 324.664032,308.534851 322.123474,305.876373 
	C295.424652,277.938293 268.597748,250.121994 241.674347,222.400101 
	C239.006668,219.653290 238.858078,217.602554 240.425507,214.192886 
	C245.673447,202.776932 242.664505,189.517899 233.337112,180.806091 
	C224.985382,173.005508 211.532104,171.183884 201.208450,176.706131 
	C190.539581,182.413010 184.996582,191.400055 185.582886,203.572632 
	C186.173508,215.834610 192.235870,224.720139 203.680313,229.377090 
	C206.914368,230.693085 207.768875,232.331558 207.759155,235.610077 
	C207.652039,271.769562 207.652557,307.929596 207.753159,344.089081 
	C207.762726,347.528687 206.898193,349.270630 203.401764,350.623138 
	C191.955811,355.050751 185.201172,365.691040 185.328415,377.990509 
	C185.455078,390.230591 192.601273,400.428040 204.129486,404.934875 
	C205.473907,405.460480 206.683289,406.331512 207.790817,407.958923 
	C207.766678,434.514435 207.716766,461.069916 207.730194,487.625427 
	C207.736160,499.403168 207.870163,511.180847 207.579559,523.572327 
	C205.818436,524.444458 204.069794,525.343018 202.294189,526.184631 
	C187.867111,533.023438 181.338669,549.758240 187.552200,563.999390 
	C194.001511,578.780884 210.188004,585.494873 225.028839,579.544250 
	C239.495636,573.743591 247.083908,556.506897 240.842758,541.751953 
	C238.806137,536.937073 239.680542,534.496033 242.972626,531.118958 
	C262.966309,510.608887 282.684326,489.830322 302.645721,469.288483 
	C309.563812,462.169189 316.914124,455.469879 324.288696,448.365143 
	C341.547516,457.220490 359.184021,466.217926 376.774170,475.305084 
	C420.830963,498.065063 464.853516,520.891357 508.942719,543.588257 
	C511.677002,544.995911 512.661072,546.166504 512.250427,549.572510 
	C510.221588,566.400635 523.335205,581.067017 540.322815,581.469360 
	C551.940002,581.744507 562.859497,575.332581 566.974731,565.445007 
	C571.876770,553.666870 570.764832,542.593323 561.970886,532.929382 
	C554.007141,524.177795 541.976074,521.355591 530.906738,525.843140 
	C527.868530,527.074829 526.506653,526.240845 524.653992,524.149841 
	C513.501160,511.562225 502.266693,499.046509 491.000854,486.559692 
	C478.740662,472.970764 466.416595,459.439514 453.874298,445.258545 
	C445.277313,435.813599 436.680328,426.368622 427.808136,416.311707 
	C422.050018,409.857239 416.413055,403.288116 410.470428,397.008240 
	C408.286530,394.700439 408.059814,393.034576 409.445923,390.113434 
	C413.437744,381.700989 413.534882,372.984406 409.285889,364.623016 
	C407.767731,361.635559 408.405426,359.980438 410.444489,357.721466 
	C426.164307,340.306824 441.784546,322.801971 457.378998,305.274628 
	C468.982483,292.232849 480.501221,279.115692 492.009003,266.008636 
	C492.009003,266.008636 492.031830,266.057007 492.635742,265.769043 
z"/>
<path fill="#4FB286" opacity="1.000000" stroke="none" 
	d="
M207.955292,407.042389 
	C206.683289,406.331512 205.473907,405.460480 204.129486,404.934875 
	C192.601273,400.428040 185.455078,390.230591 185.328415,377.990509 
	C185.201172,365.691040 191.955811,355.050751 203.401764,350.623138 
	C206.898193,349.270630 207.762726,347.528687 207.753159,344.089081 
	C207.652557,307.929596 207.652039,271.769562 207.759155,235.610077 
	C207.768875,232.331558 206.914368,230.693085 203.680313,229.377090 
	C192.235870,224.720139 186.173508,215.834610 185.582886,203.572632 
	C184.996582,191.400055 190.539581,182.413010 201.208450,176.706131 
	C211.532104,171.183884 224.985382,173.005508 233.337112,180.806091 
	C242.664505,189.517899 245.673447,202.776932 240.425507,214.192886 
	C238.858078,217.602554 239.006668,219.653290 241.674347,222.400101 
	C268.597748,250.121994 295.424652,277.938293 322.123474,305.876373 
	C324.664032,308.534851 326.483582,308.377106 329.350342,306.841553 
	C388.923157,274.931183 448.520599,243.066635 508.177673,211.314163 
	C511.412109,209.592636 512.562988,208.013184 512.224548,204.085190 
	C511.016144,190.059647 521.675354,176.313324 534.824768,174.129486 
	C550.729370,171.488083 565.109924,180.275009 568.868225,194.930939 
	C572.516968,209.159576 564.733765,224.553909 551.087463,229.494843 
	C544.307068,231.949829 537.211670,232.006882 530.578247,229.110291 
	C527.399658,227.722244 525.902649,228.471985 523.892212,230.775497 
	C516.556824,239.180420 509.033081,247.421021 501.326813,255.517624 
	C502.022186,253.592865 503.591736,251.933289 503.763000,250.140167 
	C503.977600,247.893066 503.044678,245.536377 502.607056,243.226990 
	C500.926483,244.070816 499.151093,244.769135 497.585754,245.789627 
	C494.586548,247.744980 491.706696,249.883392 488.902039,251.624542 
	C495.815826,243.541428 502.604950,235.779617 509.394043,228.017807 
	C509.001007,227.534988 508.607941,227.052170 508.214905,226.569351 
	C506.249023,227.199829 504.136322,227.552567 502.339294,228.502457 
	C475.594818,242.639526 448.899475,256.869324 422.177002,271.048035 
	C405.150421,280.082153 388.098358,289.068146 371.140442,297.734833 
	C373.146729,295.929901 375.070312,294.465851 377.307129,292.852539 
	C381.560364,290.446350 385.500366,288.189392 389.940491,285.645935 
	C386.725250,282.739075 384.406677,280.371063 380.659332,282.298828 
	C377.739410,283.800964 374.874969,285.410889 371.647034,287.083221 
	C364.868774,290.455353 358.429382,293.717194 351.727539,297.196655 
	C348.970306,299.266876 346.475464,301.119446 343.617554,303.045959 
	C339.168030,304.740479 335.081573,306.361023 330.720154,308.168579 
	C328.076172,309.729156 326.098389,313.204987 322.819885,309.951294 
	C318.842407,306.003876 314.945099,301.975708 310.789795,297.732574 
	C307.714783,294.646912 304.863068,291.811127 301.827972,288.695099 
	C297.657196,283.998199 293.731262,279.524139 289.670227,275.176208 
	C279.558563,264.350250 269.521118,253.449463 259.181580,242.844162 
	C253.751144,237.274139 247.748703,232.261780 241.648438,226.931000 
	C237.343811,224.390762 235.807907,220.003128 237.738953,215.396378 
	C240.397354,209.054398 241.139526,202.860352 239.474777,195.962204 
	C236.696533,184.450104 225.591354,175.787491 213.753372,175.926483 
	C195.777405,176.137573 183.891861,194.628754 188.644623,209.966263 
	C191.054840,217.744263 196.022629,222.994888 202.953568,226.361084 
	C208.164383,228.891861 210.348801,232.331360 210.070786,238.126007 
	C209.697128,245.914047 209.981384,253.733597 209.981140,261.539612 
	C209.980469,282.459473 209.980743,303.379333 209.976089,324.299194 
	C209.974640,330.798035 209.965302,337.296906 209.946625,343.795715 
	C209.935776,347.565735 208.887375,351.094177 204.998077,352.204163 
	C198.146378,354.159637 194.402435,358.869995 191.095001,364.825592 
	C183.355698,378.761444 189.336014,396.619751 204.016098,402.642548 
	C205.946289,403.434479 207.347870,405.514832 208.734467,407.008057 
	C208.301544,407.025909 208.128418,407.034149 207.955292,407.042389 
M520.540283,230.560471 
	C522.514038,225.793396 525.951782,225.291077 530.303345,227.094284 
	C531.829651,227.726761 533.462158,228.248093 535.093079,228.461075 
	C557.111877,231.336639 567.853149,216.691299 567.236328,199.551971 
	C566.813904,187.813400 558.186462,180.568253 547.556458,176.796814 
	C538.115662,173.447342 530.250488,178.910736 522.453308,183.209534 
	C520.953125,184.036606 519.347839,185.702744 518.933228,187.281723 
	C517.528687,192.630005 515.996033,198.079590 515.711060,203.552887 
	C515.352234,210.445419 511.968323,215.535843 505.221893,216.016861 
	C502.633240,217.311890 499.786133,218.284912 497.579529,220.055954 
	C496.660370,220.793686 496.415192,223.685745 497.126678,224.767181 
	C497.824005,225.827072 500.474518,226.644135 501.656067,226.138458 
	C504.630157,224.865540 507.259277,222.786713 510.616730,220.692566 
	C512.520447,219.329224 514.477905,216.670883 516.765015,219.445496 
	C517.561340,220.411606 516.660095,222.872543 516.331482,224.612503 
	C516.232544,225.136154 515.450134,225.530731 514.433716,226.367126 
	C512.686279,228.330948 510.668182,230.126114 509.297974,232.325012 
	C508.536316,233.547256 508.294312,236.582733 508.789703,236.826508 
	C510.440643,237.638931 513.156189,238.449570 514.320312,237.632278 
	C516.628479,236.011734 518.173523,233.304276 520.540283,230.560471 
M464.062561,238.475601 
	C462.709717,240.208389 461.356873,241.941177 460.003998,243.673965 
	C462.383698,244.046265 465.179016,245.401978 467.064575,244.605087 
	C472.555420,242.284470 477.749634,239.216583 482.899963,236.170853 
	C484.050995,235.490204 485.489410,232.957748 485.174316,232.559067 
	C484.078644,231.172684 482.287415,229.557190 480.728790,229.523926 
	C479.002563,229.487106 477.206268,231.031021 475.502533,231.996063 
	C471.901764,234.035660 468.341400,236.146591 464.062561,238.475601 
z"/>
<path fill="#4FB286" opacity="1.000000" stroke="none" 
	d="
M454.120361,445.883118 
	C466.416595,459.439514 478.740662,472.970764 491.000854,486.559692 
	C502.266693,499.046509 513.501160,511.562225 524.653992,524.149841 
	C526.506653,526.240845 527.868530,527.074829 530.906738,525.843140 
	C541.976074,521.355591 554.007141,524.177795 561.970886,532.929382 
	C570.764832,542.593323 571.876770,553.666870 566.974731,565.445007 
	C562.859497,575.332581 551.940002,581.744507 540.322815,581.469360 
	C523.335205,581.067017 510.221588,566.400635 512.250427,549.572510 
	C512.661072,546.166504 511.677002,544.995911 508.942719,543.588257 
	C464.853516,520.891357 420.830963,498.065063 376.774170,475.305084 
	C359.184021,466.217926 341.547516,457.220490 324.288696,448.365143 
	C316.914124,455.469879 309.563812,462.169189 302.645721,469.288483 
	C282.684326,489.830322 262.966309,510.608887 242.972626,531.118958 
	C239.680542,534.496033 238.806137,536.937073 240.842758,541.751953 
	C247.083908,556.506897 239.495636,573.743591 225.028839,579.544250 
	C210.188004,585.494873 194.001511,578.780884 187.552200,563.999390 
	C181.338669,549.758240 187.867111,533.023438 202.294189,526.184631 
	C204.069794,525.343018 205.818436,524.444458 208.022415,523.289429 
	C208.638519,523.020203 208.811768,523.033875 208.878662,523.370728 
	C207.258286,525.143860 205.952301,526.944885 204.195862,527.985840 
	C194.241623,533.885315 187.598297,541.156372 187.729538,554.030762 
	C187.878799,568.676331 197.283676,576.081604 207.893219,578.437622 
	C227.842087,582.867615 246.479980,566.858215 239.083618,545.099487 
	C236.458862,537.377930 237.396057,532.740906 243.258484,527.840942 
	C244.338501,526.774536 245.166016,525.882263 246.245819,524.772461 
	C250.011871,520.054749 253.525650,515.554626 257.380188,510.999207 
	C259.485626,509.638580 261.250275,508.333221 263.286224,506.835022 
	C266.377380,503.433014 269.197266,500.223846 272.011353,497.008392 
	C272.005615,497.002106 272.016357,497.020508 272.339569,496.913544 
	C277.452148,491.876709 282.241516,486.946838 287.233765,481.768433 
	C287.968628,480.363464 288.500549,479.207062 289.384399,477.996490 
	C297.510162,470.381012 305.349548,462.883667 312.916626,455.120880 
	C313.446320,454.577545 312.380341,451.544006 311.267761,450.651062 
	C310.477051,450.016449 308.063141,450.597717 306.886353,451.394012 
	C302.420349,454.415955 298.163025,457.746246 293.959656,460.647003 
	C309.404358,444.552368 324.717072,428.771942 339.981110,413.346680 
	C337.621002,416.801605 335.309601,419.901428 332.783203,423.245789 
	C332.040283,424.651581 331.512360,425.812866 330.666473,427.093933 
	C325.450317,431.821808 320.376251,436.264557 315.779083,441.155579 
	C314.647156,442.359924 315.068726,445.024475 314.776123,447.017731 
	C316.692322,447.282043 318.601440,447.669586 320.526489,447.780487 
	C323.122833,447.930023 326.129547,447.028442 328.264526,448.042480 
	C336.651154,452.026031 344.752319,456.608124 352.986847,460.915710 
	C355.779053,462.376373 358.549255,464.385986 361.522980,464.820282 
	C363.618530,465.126312 366.040497,463.196991 368.316711,462.265686 
	C367.277588,460.840424 366.508575,459.026520 365.140015,458.075256 
	C362.708405,456.385193 359.793945,455.402771 357.298096,453.789215 
	C353.463989,451.310516 349.813110,448.548370 346.434875,445.980896 
	C362.638977,454.155426 378.512970,462.216278 394.333252,470.381226 
	C398.737549,472.654266 402.982910,475.235229 406.904083,477.688721 
	C405.026245,477.576996 403.464111,477.116882 402.094788,477.449860 
	C401.256012,477.653809 399.965607,479.603546 400.152008,479.866669 
	C402.149811,482.686432 403.952179,485.981903 406.690674,487.860077 
	C410.722992,490.625610 415.375671,492.602478 419.981567,494.338074 
	C421.201477,494.797791 423.217865,493.143860 424.868500,492.460449 
	C424.217102,491.020325 423.959015,488.974945 422.843048,488.249756 
	C418.973938,485.735626 414.733612,483.799683 410.791992,481.386536 
	C409.389771,480.528076 408.437408,478.934845 407.646576,477.668884 
	C434.161774,491.046478 460.316101,504.420502 486.454895,517.824829 
	C494.775299,522.091614 503.054321,526.439087 511.352295,530.749634 
	C511.616455,530.430237 511.880615,530.110779 512.144775,529.791382 
	C509.510773,526.512085 506.988617,523.135010 504.222076,519.971680 
	C495.485016,509.981323 486.656372,500.071014 478.200378,490.205139 
	C479.271576,490.655273 480.143829,490.884521 480.716888,491.428772 
	C484.087769,494.630585 487.171051,498.186920 490.821991,501.016296 
	C492.258820,502.129791 494.911316,501.674652 497.010193,501.933807 
	C496.810913,499.957916 497.210419,497.619812 496.281982,496.085022 
	C494.587311,493.283722 492.162140,490.907776 489.943359,488.442902 
	C479.958221,477.350281 469.868652,466.350464 459.981750,455.171295 
	C457.592865,452.470123 455.832672,449.212891 453.867615,446.129333 
	C453.951843,446.047241 454.120361,445.883118 454.120361,445.883118 
M512.000122,513.999878 
	C512.000122,513.999878 512.006042,513.987793 511.626343,513.439148 
	C510.373291,511.900909 509.294525,510.160004 507.813721,508.886597 
	C506.558990,507.807617 504.869080,506.792633 503.312836,506.695831 
	C502.552368,506.648499 501.007355,508.742676 500.983673,509.891571 
	C500.951965,511.432434 501.795044,513.175720 502.729126,514.504028 
	C503.829071,516.068298 505.360413,517.360474 506.831268,518.623169 
	C508.103638,519.715515 509.464386,521.137512 510.956482,521.384583 
	C511.902954,521.541321 514.120361,519.765869 514.078918,518.941650 
	C513.994568,517.262085 512.768127,515.639771 512.000122,513.999878 
M485.809479,528.023743 
	C488.680817,529.093079 492.520538,529.351624 494.230316,531.393555 
	C498.315338,536.272156 503.452209,538.587036 509.082428,540.865601 
	C511.436523,541.818359 513.486633,545.092773 514.375549,547.746765 
	C515.915344,552.344177 516.060669,557.396729 517.474060,562.050903 
	C520.533997,572.126648 529.933899,578.256897 540.363831,579.158875 
	C553.149109,580.264526 568.437805,568.538757 567.690918,553.630981 
	C567.228760,544.405579 564.944031,535.148315 555.539368,530.538269 
	C548.364868,527.021484 540.743591,524.290894 532.532959,527.423584 
	C529.001953,528.770813 525.975525,528.839966 522.967407,525.835388 
	C522.010864,524.880005 519.090393,524.971558 517.651367,525.713867 
	C516.530334,526.292236 516.164978,528.583679 515.753052,530.188110 
	C515.533325,531.044067 515.926392,532.057373 516.179260,534.102966 
	C512.291565,533.137329 508.945496,532.533081 505.767181,531.440735 
	C503.471069,530.651611 501.386749,529.234253 499.228058,528.060120 
	C496.148682,526.385132 493.087738,524.676208 489.489624,522.544861 
	C484.624329,519.697449 479.894562,516.556946 474.801575,514.201965 
	C473.475830,513.588928 470.792175,515.124695 469.204834,516.307678 
	C468.674103,516.703186 469.129150,519.924805 469.962646,520.399902 
	C474.835358,523.177063 479.954071,525.522522 485.809479,528.023743 
M454.569763,508.976837 
	C454.364532,507.215607 454.804596,504.543488 453.837158,503.858063 
	C450.472321,501.474121 446.766296,499.337524 442.878174,498.044556 
	C441.375702,497.544922 439.039429,499.552734 437.083038,500.418213 
	C437.824738,501.843475 438.203491,503.824097 439.375885,504.590363 
	C442.963837,506.935272 446.787964,508.962921 450.685364,510.754883 
	C451.525818,511.141327 453.057739,510.023804 454.569763,508.976837 
M387.698334,478.471191 
	C389.573181,477.684021 391.573212,477.090149 393.253418,476.002350 
	C393.823364,475.633362 393.941406,473.213135 393.664551,473.090790 
	C388.918701,470.992950 384.131561,468.944122 379.202179,467.353424 
	C378.456024,467.112671 376.593353,469.050354 375.980469,470.331238 
	C375.746948,470.819336 377.402252,472.567352 378.499298,473.266083 
	C381.275543,475.034363 384.223328,476.533325 387.698334,478.471191 
z"/>
<path fill="#4FB286" opacity="1.000000" stroke="none" 
	d="
M492.057678,266.032043 
	C480.501221,279.115692 468.982483,292.232849 457.378998,305.274628 
	C441.784546,322.801971 426.164307,340.306824 410.444489,357.721466 
	C408.405426,359.980438 407.767731,361.635559 409.285889,364.623016 
	C413.534882,372.984406 413.437744,381.700989 409.445923,390.113434 
	C408.059814,393.034576 408.286530,394.700439 410.470428,397.008240 
	C416.413055,403.288116 422.050018,409.857239 427.857025,416.698853 
	C427.905914,417.085999 427.728455,417.248322 427.459290,417.120728 
	C426.459656,416.662872 425.729218,416.332642 424.728638,415.808655 
	C419.391144,410.174194 414.282837,404.770844 409.273041,399.277710 
	C406.598846,396.345490 405.976593,393.170929 407.524811,389.209045 
	C410.092987,382.636841 411.796417,375.611877 408.496918,368.916412 
	C404.877991,361.572754 407.849762,356.594452 412.660614,351.336060 
	C423.285492,339.722656 433.578156,327.805328 444.330200,315.904480 
	C453.419006,310.158936 458.554291,300.444946 455.305664,294.230804 
	C453.090668,296.339935 451.111603,298.469604 448.880554,300.290527 
	C445.643250,302.932770 442.223999,305.352051 438.985016,307.546173 
	C442.825043,303.004303 446.530853,298.754211 450.305603,294.566284 
	C462.515289,281.020172 474.750305,267.496948 486.937256,254.321564 
	C486.016022,256.233063 485.313477,257.930176 484.218903,259.318115 
	C479.535187,265.257172 474.735809,271.105011 469.763916,277.247345 
	C467.605774,279.914398 465.429260,282.176514 463.819580,284.788055 
	C463.041321,286.050690 463.327972,287.969696 463.132446,289.591522 
	C464.955872,289.686371 467.293915,290.527466 468.485229,289.705811 
	C470.397797,288.386780 471.551758,285.967773 473.298767,283.822632 
	C475.495422,281.601837 477.325500,279.471497 479.363464,277.563171 
	C483.535767,273.656342 487.819733,269.868744 492.057678,266.032043 
z"/>
<path fill="#49C08B" opacity="1.000000" stroke="none" 
	d="
M492.033325,266.020325 
	C487.819733,269.868744 483.535767,273.656342 479.363464,277.563171 
	C477.325500,279.471497 475.495422,281.601837 472.983276,283.744019 
	C471.850311,282.722687 471.206970,281.623901 470.788788,280.445251 
	C470.395264,279.336060 470.239197,278.142548 469.978638,276.986145 
	C474.735809,271.105011 479.535187,265.257172 484.218903,259.318115 
	C485.313477,257.930176 486.016022,256.233063 486.949890,254.339996 
	C487.000885,254.001770 486.957520,253.991943 487.149841,253.827545 
	C487.549530,253.398239 487.756866,253.133316 488.028687,252.659454 
	C488.242462,252.175522 488.470551,252.007294 488.777344,251.945862 
	C491.706696,249.883392 494.586548,247.744980 497.585754,245.789627 
	C499.151093,244.769135 500.926483,244.070816 502.607056,243.226990 
	C503.044678,245.536377 503.977600,247.893066 503.763000,250.140167 
	C503.591736,251.933289 502.022186,253.592865 501.027466,255.668579 
	C500.944550,256.357758 500.796021,256.629059 499.982605,257.022400 
	C496.963409,260.156006 494.497620,263.106506 492.031860,266.057007 
	C492.031830,266.057007 492.009003,266.008636 492.033325,266.020325 
z"/>
<path fill="#5FB18E" opacity="1.000000" stroke="none" 
	d="
M208.985031,523.047546 
	C208.811768,523.033875 208.638519,523.020203 208.205658,522.982544 
	C207.870163,511.180847 207.736160,499.403168 207.730194,487.625427 
	C207.716766,461.069916 207.766678,434.514435 207.873047,407.500671 
	C208.128418,407.034149 208.301544,407.025909 208.738647,407.476929 
	C209.026581,442.630737 209.050552,477.325317 209.060913,512.471130 
	C209.055435,515.939758 209.063568,518.957092 209.051910,522.242920 
	C209.016449,522.690063 209.000732,522.868774 208.985031,523.047546 
z"/>
<path fill="#4FB286" opacity="1.000000" stroke="none" 
	d="
M427.994629,417.004822 
	C436.680328,426.368622 445.277313,435.813599 453.997314,445.570831 
	C454.120361,445.883118 453.951843,446.047241 453.574280,445.973755 
	C446.803040,439.266357 440.306091,432.727448 434.067749,425.950500 
	C431.653076,423.327393 429.824219,420.165009 427.728455,417.248322 
	C427.728455,417.248322 427.905914,417.085999 427.994629,417.004822 
z"/>
<path fill="#4FB286" opacity="1.000000" stroke="none" 
	d="
M492.333801,265.913025 
	C494.497620,263.106506 496.963409,260.156006 499.763733,257.113647 
	C497.610779,259.937531 495.123260,262.853302 492.333801,265.913025 
z"/>
<path fill="#47C18C" opacity="1.000000" stroke="none" 
	d="
M208.878662,523.370728 
	C209.000732,522.868774 209.016449,522.690063 209.399521,522.176880 
	C214.035400,519.024597 213.795532,515.621704 209.074509,512.019897 
	C209.050552,477.325317 209.026581,442.630737 208.998444,407.467285 
	C207.347870,405.514832 205.946289,403.434479 204.016098,402.642548 
	C189.336014,396.619751 183.355698,378.761444 191.095001,364.825592 
	C194.402435,358.869995 198.146378,354.159637 204.998077,352.204163 
	C208.887375,351.094177 209.935776,347.565735 209.946625,343.795715 
	C209.965302,337.296906 209.974640,330.798035 209.976089,324.299194 
	C209.980743,303.379333 209.980469,282.459473 209.981140,261.539612 
	C209.981384,253.733597 209.697128,245.914047 210.070786,238.126007 
	C210.348801,232.331360 208.164383,228.891861 202.953568,226.361084 
	C196.022629,222.994888 191.054840,217.744263 188.644623,209.966263 
	C183.891861,194.628754 195.777405,176.137573 213.753372,175.926483 
	C225.591354,175.787491 236.696533,184.450104 239.474777,195.962204 
	C241.139526,202.860352 240.397354,209.054398 237.738953,215.396378 
	C235.807907,220.003128 237.343811,224.390762 241.654266,227.309326 
	C242.320007,229.767563 242.623779,231.780884 242.964249,234.037262 
	C240.825455,233.306259 238.916367,232.653778 236.915863,231.668793 
	C235.109589,229.859024 233.128830,228.594070 231.741043,226.855728 
	C229.557571,224.120667 227.548157,224.153641 225.007507,226.227554 
	C223.871017,227.155243 222.479477,227.873962 221.090012,228.367416 
	C217.886444,229.505081 217.010803,231.756332 217.082825,234.962387 
	C217.462601,251.867981 217.901459,268.776062 217.934479,285.684052 
	C217.951233,294.263824 216.787338,302.846680 216.822449,311.425385 
	C216.866501,322.192230 217.519180,332.960266 218.094971,343.717804 
	C218.193909,345.566162 219.218857,347.364960 220.003845,349.467377 
	C224.763336,352.659271 229.156662,355.936493 233.997528,358.295380 
	C235.846817,359.196503 239.072510,358.652954 241.045731,357.598175 
	C244.043716,355.995544 246.496658,353.373291 249.554276,351.137512 
	C251.193588,350.725861 252.558975,350.554413 253.709915,349.964569 
	C261.653778,345.893646 269.627106,341.869202 277.429962,337.539612 
	C280.564209,335.800537 283.292419,333.329651 286.578094,331.147461 
	C289.060730,330.239319 291.159424,329.346497 293.283661,328.519318 
	C295.703430,327.577026 298.099609,326.099121 300.588043,325.904999 
	C306.149597,325.471100 310.443939,323.086914 314.307556,319.130371 
	C316.761749,320.181549 318.895203,321.096313 320.804382,322.249176 
	C316.355927,323.500183 312.904816,325.468445 309.421051,328.360107 
	C305.205078,331.859528 299.451355,333.436340 294.610199,336.267639 
	C285.633728,341.517487 276.812592,347.035583 267.988342,352.540680 
	C266.509644,353.463226 265.341156,354.882996 264.025024,356.042847 
	C264.020752,356.012665 264.072418,356.044983 263.690552,356.071808 
	C256.829193,359.171326 250.319275,362.183136 243.906921,365.389984 
	C243.059265,365.813934 242.708923,367.232300 242.133057,368.152771 
	C242.137848,368.115479 242.212418,368.125397 241.907867,368.286224 
	C241.326019,370.121124 240.754990,371.806366 240.818008,373.467529 
	C241.312698,386.510284 236.764801,396.866882 224.360855,402.325836 
	C222.691315,403.060638 221.463242,404.798462 220.016479,406.045776 
	C220.002228,406.019806 220.061447,406.022919 219.752853,406.244751 
	C218.969513,408.833588 218.088196,411.199463 218.081451,413.567810 
	C217.990845,445.346466 218.058365,477.125549 217.969131,508.904236 
	C217.959946,512.179810 216.818604,515.464417 216.915237,518.723755 
	C216.979950,520.907288 217.663177,523.820984 219.175446,525.085205 
	C226.187286,530.947083 228.342804,530.740417 235.161133,524.805542 
	C236.161270,523.934998 237.047501,522.933655 238.343704,521.942627 
	C240.460632,519.916443 242.220306,517.940491 244.170471,515.693726 
	C246.905563,512.615356 249.450180,509.807800 252.370285,507.000519 
	C253.496719,507.001190 254.247665,507.001556 255.124756,507.298645 
	C255.847092,508.748383 256.443268,509.901459 257.039429,511.054504 
	C253.525650,515.554626 250.011871,520.054749 245.923523,524.851685 
	C244.567978,526.104065 243.786987,527.059631 243.006012,528.015137 
	C237.396057,532.740906 236.458862,537.377930 239.083618,545.099487 
	C246.479980,566.858215 227.842087,582.867615 207.893219,578.437622 
	C197.283676,576.081604 187.878799,568.676331 187.729538,554.030762 
	C187.598297,541.156372 194.241623,533.885315 204.195862,527.985840 
	C205.952301,526.944885 207.258286,525.143860 208.878662,523.370728 
z"/>
<path fill="#050B10" opacity="1.000000" stroke="none" 
	d="
M488.902039,251.624542 
	C488.470551,252.007294 488.242462,252.175522 487.781219,252.763580 
	C487.298706,253.381729 487.128113,253.686829 486.957520,253.991943 
	C486.957520,253.991943 487.000885,254.001770 486.988251,253.983337 
	C474.750305,267.496948 462.515289,281.020172 450.305603,294.566284 
	C446.530853,298.754211 442.825043,303.004303 439.004730,307.559143 
	C438.921783,307.892365 438.895691,307.865631 438.601654,308.026184 
	C426.130219,321.806549 414.007416,335.476105 401.695679,348.973297 
	C400.383606,350.411713 397.967163,350.842743 396.075562,351.798309 
	C396.088135,351.855560 396.202545,351.830109 395.961548,351.544373 
	C387.368866,348.066071 379.092651,347.471008 370.979370,351.992828 
	C370.994202,352.008118 370.987701,351.966400 370.648132,352.004578 
	C369.222321,352.275818 368.136078,352.508911 366.985596,352.544800 
	C366.759033,352.100250 366.531433,351.955505 366.140869,351.658691 
	C365.745178,351.213348 365.447113,351.022705 365.121704,350.888947 
	C365.094299,350.945862 365.179596,350.852631 365.040100,350.547546 
	C355.948212,340.994598 346.942932,331.796783 338.102356,322.443268 
	C336.823792,321.090546 336.335815,318.990631 335.420471,317.244080 
	C335.358917,317.251709 335.374969,317.374664 335.702026,317.291321 
	C337.736755,316.175720 339.444427,315.143463 341.120728,314.101868 
	C341.089325,314.092499 341.090942,314.157990 341.448792,314.100861 
	C350.247803,309.395203 358.688965,304.746674 367.099854,300.086365 
	C367.069519,300.074585 367.064301,300.139435 367.397461,300.107239 
	C368.846893,299.401733 369.963135,298.728455 371.055389,298.039673 
	C371.031372,298.024139 371.057709,298.075714 371.057709,298.075714 
	C388.098358,289.068146 405.150421,280.082153 422.177002,271.048035 
	C448.899475,256.869324 475.594818,242.639526 502.339294,228.502457 
	C504.136322,227.552567 506.249023,227.199829 508.214905,226.569351 
	C508.607941,227.052170 509.001007,227.534988 509.394043,228.017807 
	C502.604950,235.779617 495.815826,243.541428 488.902039,251.624542 
z"/>
<path fill="#46C18B" opacity="1.000000" stroke="none" 
	d="
M505.989807,215.979584 
	C511.968323,215.535843 515.352234,210.445419 515.711060,203.552887 
	C515.996033,198.079590 517.528687,192.630005 518.933228,187.281723 
	C519.347839,185.702744 520.953125,184.036606 522.453308,183.209534 
	C530.250488,178.910736 538.115662,173.447342 547.556458,176.796814 
	C558.186462,180.568253 566.813904,187.813400 567.236328,199.551971 
	C567.853149,216.691299 557.111877,231.336639 535.093079,228.461075 
	C533.462158,228.248093 531.829651,227.726761 530.303345,227.094284 
	C525.951782,225.291077 522.514038,225.793396 520.079712,230.547287 
	C518.073059,229.017548 516.526978,227.500992 514.980835,225.984436 
	C515.450134,225.530731 516.232544,225.136154 516.331482,224.612503 
	C516.660095,222.872543 517.561340,220.411606 516.765015,219.445496 
	C514.477905,216.670883 512.520447,219.329224 510.050476,220.669525 
	C508.319427,219.090836 507.154602,217.535217 505.989807,215.979584 
z"/>
<path fill="#49C08B" opacity="1.000000" stroke="none" 
	d="
M237.007294,232.001297 
	C238.916367,232.653778 240.825455,233.306259 242.964249,234.037262 
	C242.623779,231.780884 242.320007,229.767563 242.010376,227.375931 
	C247.748703,232.261780 253.751144,237.274139 259.181580,242.844162 
	C269.521118,253.449463 279.558563,264.350250 289.670227,275.176208 
	C293.731262,279.524139 297.657196,283.998199 301.816162,289.059967 
	C302.083466,294.630951 298.522736,292.898315 295.698578,292.813293 
	C294.589417,291.816895 293.474579,291.160248 292.970764,290.187195 
	C291.037567,286.453400 288.941315,283.096222 284.569275,281.638367 
	C283.454468,281.266632 282.851532,279.348785 282.022095,278.135345 
	C281.194031,276.923920 280.563385,275.509369 279.525604,274.520142 
	C270.538483,265.953339 261.512238,257.426575 252.410721,248.981598 
	C250.753830,247.444229 248.701355,246.333145 246.623535,244.944809 
	C246.156647,244.683609 245.998260,244.438049 245.784637,243.920868 
	C245.376236,243.478577 245.123581,243.243042 244.894806,243.034027 
	C244.918671,243.060532 244.864761,243.107269 244.843689,242.747574 
	C242.217499,238.925674 239.612396,235.463486 237.007294,232.001297 
z"/>
<path fill="#4AC08C" opacity="1.000000" stroke="none" 
	d="
M321.028656,322.011108 
	C318.895203,321.096313 316.761749,320.181549 314.434052,318.829254 
	C314.078339,316.364594 314.584351,313.912445 313.619415,312.396851 
	C311.468628,309.018738 308.582916,306.108521 306.181946,302.740753 
	C307.915833,300.976715 309.464478,299.479584 311.013092,297.982452 
	C314.945099,301.975708 318.842407,306.003876 322.819885,309.951294 
	C326.098389,313.204987 328.076172,309.729156 330.740295,308.549347 
	C332.364990,311.164001 333.694580,313.584930 335.108276,316.348969 
	C335.253235,316.919617 335.314087,317.147156 335.374969,317.374664 
	C335.374969,317.374664 335.358917,317.251709 335.139038,317.373047 
	C334.820068,318.781647 334.170898,320.423126 334.727783,321.288055 
	C336.232300,323.624786 338.285095,325.602478 340.057220,327.774139 
	C344.726227,333.495819 349.361786,339.244781 353.887817,345.257629 
	C354.120758,346.476257 354.476593,347.420135 354.832397,348.364014 
	C355.893433,347.901550 356.954468,347.439087 358.294495,347.169006 
	C360.775513,348.525146 362.977539,349.688873 365.179596,350.852631 
	C365.179596,350.852631 365.094299,350.945862 365.076385,351.188202 
	C365.041595,351.631134 365.024689,351.831696 364.815857,352.306702 
	C362.742798,354.396118 360.861633,356.211151 358.707947,357.835022 
	C349.892853,349.150940 341.425049,340.580872 332.772797,332.201202 
	C329.055328,328.600861 324.955017,325.395782 321.028656,322.011108 
z"/>
<path fill="#49C08B" opacity="1.000000" stroke="none" 
	d="
M351.989960,296.979004 
	C358.429382,293.717194 364.868774,290.455353 371.840271,287.366150 
	C373.912842,289.359772 375.453369,291.180786 376.993896,293.001801 
	C375.070312,294.465851 373.146729,295.929901 371.140442,297.734833 
	C371.057709,298.075714 371.031372,298.024139 370.702240,298.047394 
	C369.270172,298.760254 368.167236,299.449829 367.064301,300.139435 
	C367.064301,300.139435 367.069519,300.074585 366.704651,300.081116 
	C362.564728,301.405762 358.789642,302.723846 354.864105,303.731262 
	C353.805756,301.273376 352.897858,299.126190 351.989960,296.979004 
z"/>
<path fill="#4BC18C" opacity="1.000000" stroke="none" 
	d="
M464.413513,238.351929 
	C468.341400,236.146591 471.901764,234.035660 475.502533,231.996063 
	C477.206268,231.031021 479.002563,229.487106 480.728790,229.523926 
	C482.287415,229.557190 484.078644,231.172684 485.174316,232.559067 
	C485.489410,232.957748 484.050995,235.490204 482.899963,236.170853 
	C477.749634,239.216583 472.555420,242.284470 467.064575,244.605087 
	C465.179016,245.401978 462.383698,244.046265 460.003998,243.673965 
	C461.356873,241.941177 462.709717,240.208389 464.413513,238.351929 
z"/>
<path fill="#49C08B" opacity="1.000000" stroke="none" 
	d="
M335.024170,316.005798 
	C333.694580,313.584930 332.364990,311.164001 331.015259,308.362335 
	C335.081573,306.361023 339.168030,304.740479 343.827637,303.301208 
	C345.933441,304.985504 347.466125,306.488556 348.636475,308.041565 
	C345.879791,310.113678 343.485382,312.135834 341.090942,314.157990 
	C341.090942,314.157990 341.089325,314.092499 340.755096,314.114166 
	C338.621948,314.759155 336.823059,315.382477 335.024170,316.005798 
z"/>
<path fill="#4BC18C" opacity="1.000000" stroke="none" 
	d="
M377.307129,292.852539 
	C375.453369,291.180786 373.912842,289.359772 372.179077,287.255829 
	C374.874969,285.410889 377.739410,283.800964 380.659332,282.298828 
	C384.406677,280.371063 386.725250,282.739075 389.940491,285.645935 
	C385.500366,288.189392 381.560364,290.446350 377.307129,292.852539 
z"/>
<path fill="#49C18C" opacity="1.000000" stroke="none" 
	d="
M505.605835,215.998230 
	C507.154602,217.535217 508.319427,219.090836 509.755493,220.838699 
	C507.259277,222.786713 504.630157,224.865540 501.656067,226.138458 
	C500.474518,226.644135 497.824005,225.827072 497.126678,224.767181 
	C496.415192,223.685745 496.660370,220.793686 497.579529,220.055954 
	C499.786133,218.284912 502.633240,217.311890 505.605835,215.998230 
z"/>
<path fill="#49C18C" opacity="1.000000" stroke="none" 
	d="
M514.707275,226.175781 
	C516.526978,227.500992 518.073059,229.017548 519.826538,230.790070 
	C518.173523,233.304276 516.628479,236.011734 514.320312,237.632278 
	C513.156189,238.449570 510.440643,237.638931 508.789703,236.826508 
	C508.294312,236.582733 508.536316,233.547256 509.297974,232.325012 
	C510.668182,230.126114 512.686279,228.330948 514.707275,226.175781 
z"/>
<path fill="#4BC18C" opacity="1.000000" stroke="none" 
	d="
M310.789795,297.732574 
	C309.464478,299.479584 307.915833,300.976715 305.859985,302.632324 
	C302.226318,299.529785 299.099945,296.268738 295.973541,293.007721 
	C298.522736,292.898315 302.083466,294.630951 301.999512,289.340210 
	C304.863068,291.811127 307.714783,294.646912 310.789795,297.732574 
z"/>
<path fill="#4AC08C" opacity="1.000000" stroke="none" 
	d="
M348.998779,307.991608 
	C347.466125,306.488556 345.933441,304.985504 344.190704,303.227234 
	C346.475464,301.119446 348.970306,299.266876 351.727539,297.196655 
	C352.897858,299.126190 353.805756,301.273376 354.653717,303.979614 
	C352.728790,305.689636 350.863770,306.840637 348.998779,307.991608 
z"/>
<path fill="#050A10" opacity="1.000000" stroke="none" 
	d="
M340.029816,412.991547 
	C324.717072,428.771942 309.404358,444.552368 293.751709,460.716248 
	C293.151367,461.271667 292.995911,461.511658 292.633392,461.956512 
	C284.150665,470.685150 275.979980,479.276947 267.843689,487.870911 
	C267.878082,487.873016 267.877136,487.804077 267.594421,487.916504 
	C266.818115,488.654053 266.324524,489.279205 265.882477,489.920441 
	C265.933990,489.936493 265.965912,489.833374 265.690674,489.920471 
	C265.231873,490.333618 265.048340,490.659637 264.923401,490.984558 
	C264.981995,490.983490 264.979675,490.866302 264.711853,490.957947 
	C264.251862,491.360626 264.059692,491.671722 263.902435,491.963074 
	C263.937347,491.943359 263.897797,491.873596 263.594696,492.016327 
	C252.976746,502.790924 242.387924,513.176147 232.484406,524.178345 
	C228.622345,528.468872 225.525574,525.852539 222.454315,524.471069 
	C221.104538,523.863892 220.187317,520.845215 220.180252,518.917419 
	C220.042786,481.286285 220.068863,443.654541 220.061447,406.022919 
	C220.061447,406.022919 220.002228,406.019806 220.371384,405.924500 
	C234.290390,401.529266 242.194992,392.272278 242.840668,379.502563 
	C243.031403,375.730408 242.443497,371.918884 242.212418,368.125397 
	C242.212418,368.125397 242.137848,368.115479 242.478867,368.062927 
	C249.904068,364.021881 256.988251,360.033447 264.072418,356.044983 
	C264.072418,356.044983 264.020752,356.012665 264.380798,355.982422 
	C282.879181,346.153046 301.033264,336.382812 319.136078,326.518494 
	C321.423309,325.272186 323.005676,324.823761 325.151672,327.069794 
	C335.610413,338.015961 346.326904,348.716156 356.758820,359.687256 
	C357.738281,360.717346 358.109650,363.373016 357.502289,364.694244 
	C353.632233,373.112640 353.587982,381.524292 357.462097,389.756165 
	C358.866669,392.740631 357.986572,394.123810 356.048584,396.087585 
	C350.919495,401.284973 346.003143,406.692291 340.778870,412.109558 
	C340.273987,412.395020 340.098755,412.657837 340.029816,412.991547 
z"/>
<path fill="#050B10" opacity="1.000000" stroke="none" 
	d="
M407.301178,477.674957 
	C402.982910,475.235229 398.737549,472.654266 394.333252,470.381226 
	C378.512970,462.216278 362.638977,454.155426 346.419586,445.998596 
	C346.053894,445.941895 346.095367,445.929352 345.907013,445.643860 
	C343.825317,444.350647 341.953766,443.299286 340.034729,442.343140 
	C333.324280,438.999603 333.318054,439.012085 337.069794,433.057617 
	C337.042206,433.037476 337.006439,433.095673 337.272583,433.019714 
	C337.735138,432.643616 337.931549,432.343414 338.380249,431.919861 
	C339.099518,431.220123 339.566528,430.643738 340.285583,429.985168 
	C340.720032,429.611206 340.902374,429.319366 341.298157,428.936096 
	C341.781555,428.659637 341.949738,428.406921 342.328491,427.955566 
	C350.026917,420.147491 357.462341,412.516785 364.766876,404.762787 
	C366.744690,402.663330 368.341797,402.197723 371.169464,403.564972 
	C378.899353,407.302643 387.077332,407.394318 394.877808,404.028564 
	C398.324677,402.541321 399.810486,403.532593 401.895386,405.906586 
	C408.476807,413.400421 415.273010,420.705536 422.050537,428.304199 
	C422.284241,428.802338 422.527222,428.977844 422.937805,429.315460 
	C423.337616,429.779785 423.643585,429.979858 424.015961,430.381348 
	C424.226746,430.849518 424.447296,431.014648 424.860413,431.403076 
	C432.202240,439.617676 439.427612,447.507324 446.686890,455.298889 
	C446.720795,455.200775 446.524414,455.133575 446.611633,455.436829 
	C447.126221,456.174530 447.553589,456.609009 447.993256,457.020630 
	C448.005524,456.997742 447.954895,457.009186 448.032288,457.265015 
	C448.398163,457.715973 448.686707,457.911163 449.044434,458.318848 
	C449.268646,458.809296 449.501190,458.984161 449.923096,459.379425 
	C453.000671,462.830475 455.966309,465.958130 458.950500,469.059998 
	C458.969055,469.034271 458.908844,469.014374 458.980164,469.283752 
	C459.364258,469.737030 459.677002,469.920898 459.991486,470.057678 
	C459.993225,470.010559 459.898987,470.007202 459.983887,470.277618 
	C460.371460,470.753815 460.674133,470.959595 460.958801,471.114502 
	C460.940826,471.063629 460.839081,471.099731 460.950378,471.414185 
	C462.709045,473.496033 464.356384,475.263428 466.078674,477.250488 
	C466.313934,477.755493 466.551025,477.944641 466.984070,478.356659 
	C470.050964,481.804901 472.998596,484.934052 475.965942,488.040192 
	C475.985657,488.017181 475.925049,488.016602 476.008423,488.273956 
	C476.390045,488.715240 476.688293,488.899170 476.987305,489.048035 
	C476.988098,489.012939 476.917938,489.012634 476.998901,489.278534 
	C477.378937,489.743530 477.678040,489.942627 477.951599,490.110870 
	C477.926025,490.080017 477.863159,490.129761 477.863159,490.129761 
	C486.656372,500.071014 495.485016,509.981323 504.222076,519.971680 
	C506.988617,523.135010 509.510773,526.512085 512.144775,529.791382 
	C511.880615,530.110779 511.616455,530.430237 511.352295,530.749634 
	C503.054321,526.439087 494.775299,522.091614 486.454895,517.824829 
	C460.316101,504.420502 434.161774,491.046478 407.630981,477.698853 
	C407.248535,477.736969 407.301178,477.674957 407.301178,477.674957 
z"/>
<path fill="#46C18C" opacity="1.000000" stroke="none" 
	d="
M490.018921,522.981812 
	C493.087738,524.676208 496.148682,526.385132 499.228058,528.060120 
	C501.386749,529.234253 503.471069,530.651611 505.767181,531.440735 
	C508.945496,532.533081 512.291565,533.137329 516.179260,534.102966 
	C515.926392,532.057373 515.533325,531.044067 515.753052,530.188110 
	C516.164978,528.583679 516.530334,526.292236 517.651367,525.713867 
	C519.090393,524.971558 522.010864,524.880005 522.967407,525.835388 
	C525.975525,528.839966 529.001953,528.770813 532.532959,527.423584 
	C540.743591,524.290894 548.364868,527.021484 555.539368,530.538269 
	C564.944031,535.148315 567.228760,544.405579 567.690918,553.630981 
	C568.437805,568.538757 553.149109,580.264526 540.363831,579.158875 
	C529.933899,578.256897 520.533997,572.126648 517.474060,562.050903 
	C516.060669,557.396729 515.915344,552.344177 514.375549,547.746765 
	C513.486633,545.092773 511.436523,541.818359 509.082428,540.865601 
	C503.452209,538.587036 498.315338,536.272156 494.230316,531.393555 
	C492.520538,529.351624 488.680817,529.093079 485.507263,527.701538 
	C486.809662,525.913513 488.414307,524.447693 490.018921,522.981812 
z"/>
<path fill="#49C08B" opacity="1.000000" stroke="none" 
	d="
M449.811218,459.056000 
	C449.501190,458.984161 449.268646,458.809296 448.900208,458.113159 
	C448.442841,457.466370 448.198883,457.237762 447.954895,457.009186 
	C447.954895,457.009186 448.005524,456.997742 447.871643,456.743347 
	C447.333282,456.037140 446.928833,455.585358 446.524414,455.133606 
	C446.524414,455.133575 446.720795,455.200775 446.652039,454.940125 
	C444.618439,451.655914 443.073029,448.222015 440.600769,445.694946 
	C435.580383,440.563202 430.058899,435.921692 424.743927,431.078125 
	C424.447296,431.014648 424.226746,430.849518 423.856506,430.169983 
	C423.368408,429.521912 423.106201,429.286560 422.843964,429.051239 
	C422.527222,428.977844 422.284241,428.802338 422.019287,427.956818 
	C421.287689,425.926331 420.651794,424.463745 420.410431,422.985229 
	C425.841583,422.837372 424.813354,419.054626 424.998779,416.002441 
	C425.729218,416.332642 426.459656,416.662872 427.459290,417.120728 
	C429.824219,420.165009 431.653076,423.327393 434.067749,425.950500 
	C440.306091,432.727448 446.803040,439.266357 453.490051,446.055847 
	C455.832672,449.212891 457.592865,452.470123 459.981750,455.171295 
	C469.868652,466.350464 479.958221,477.350281 489.943359,488.442902 
	C492.162140,490.907776 494.587311,493.283722 496.281982,496.085022 
	C497.210419,497.619812 496.810913,499.957916 497.010193,501.933807 
	C494.911316,501.674652 492.258820,502.129791 490.821991,501.016296 
	C487.171051,498.186920 484.087769,494.630585 480.716888,491.428772 
	C480.143829,490.884521 479.271576,490.655273 478.200378,490.205139 
	C477.863159,490.129761 477.926025,490.080017 477.799683,489.900330 
	C477.421509,489.484650 477.169739,489.248627 476.917938,489.012634 
	C476.917938,489.012634 476.988098,489.012939 476.835175,488.846375 
	C476.429840,488.458740 476.177460,488.237671 475.925049,488.016602 
	C475.925049,488.016602 475.985657,488.017181 475.932617,487.681702 
	C474.022064,483.132141 471.846619,479.225983 466.864838,478.037567 
	C466.551025,477.944641 466.313934,477.755493 466.034180,476.893982 
	C464.222870,474.578461 462.530975,472.839081 460.839081,471.099731 
	C460.839081,471.099731 460.940826,471.063629 460.801941,470.900299 
	C460.408356,470.493713 460.153656,470.250458 459.898987,470.007202 
	C459.898987,470.007202 459.993225,470.010559 459.833862,469.854034 
	C459.419281,469.469818 459.164062,469.242096 458.908844,469.014374 
	C458.908844,469.014374 458.969055,469.034271 458.922607,468.699829 
	C455.854553,465.262238 452.832886,462.159119 449.811218,459.056000 
z"/>
<path fill="#49C18C" opacity="1.000000" stroke="none" 
	d="
M342.016205,428.086517 
	C341.949738,428.406921 341.781555,428.659637 341.097992,429.082886 
	C340.430603,429.537781 340.213654,429.786499 340.033508,430.067352 
	C339.566528,430.643738 339.099518,431.220123 338.171082,432.069763 
	C337.475281,432.593903 337.240875,432.844788 337.006439,433.095673 
	C337.006439,433.095673 337.042206,433.037476 336.701477,433.093018 
	C334.983704,434.563660 332.749084,435.840759 332.492371,437.436157 
	C332.274658,438.789124 333.998932,441.178864 335.467834,441.932495 
	C338.813354,443.648773 342.529724,444.642181 346.095367,445.929352 
	C346.095367,445.929352 346.053894,445.941895 346.069183,445.924194 
	C349.813110,448.548370 353.463989,451.310516 357.298096,453.789215 
	C359.793945,455.402771 362.708405,456.385193 365.140015,458.075256 
	C366.508575,459.026520 367.277588,460.840424 368.316711,462.265686 
	C366.040497,463.196991 363.618530,465.126312 361.522980,464.820282 
	C358.549255,464.385986 355.779053,462.376373 352.986847,460.915710 
	C344.752319,456.608124 336.651154,452.026031 328.264526,448.042480 
	C326.129547,447.028442 323.122833,447.930023 320.526489,447.780487 
	C318.601440,447.669586 316.692322,447.282043 314.776123,447.017731 
	C315.068726,445.024475 314.647156,442.359924 315.779083,441.155579 
	C320.376251,436.264557 325.450317,431.821808 330.758301,427.413879 
	C332.012817,428.452972 332.857574,429.291931 333.702301,430.130920 
	C334.579498,428.630341 335.900818,427.193542 336.129639,425.599884 
	C336.230377,424.897980 334.110077,423.877197 332.998169,423.001221 
	C335.309601,419.901428 337.621002,416.801605 339.981110,413.346680 
	C340.098755,412.657837 340.273987,412.395020 341.127197,412.066223 
	C343.791779,410.617126 345.884735,409.304871 348.153931,408.296844 
	C350.224945,410.068146 352.119659,411.535248 353.825195,413.276459 
	C351.932037,415.367126 350.087341,417.073425 348.556946,419.026062 
	C346.260956,421.955505 344.185455,425.057739 342.016205,428.086517 
z"/>
<path fill="#4AC08C" opacity="1.000000" stroke="none" 
	d="
M292.945435,461.819672 
	C292.995911,461.511658 293.151367,461.271667 293.619751,461.030457 
	C298.163025,457.746246 302.420349,454.415955 306.886353,451.394012 
	C308.063141,450.597717 310.477051,450.016449 311.267761,450.651062 
	C312.380341,451.544006 313.446320,454.577545 312.916626,455.120880 
	C305.349548,462.883667 297.510162,470.381012 289.223511,477.745880 
	C287.771515,477.503784 286.832367,477.458130 285.893250,477.412476 
	C286.272461,478.947327 286.651672,480.482147 287.030884,482.016968 
	C282.241516,486.946838 277.452148,491.876709 272.429169,496.575256 
	C275.490692,491.885132 278.785828,487.426331 282.080933,482.967560 
	C281.531006,482.471130 280.981049,481.974731 280.431091,481.478302 
	C278.218140,483.505615 275.909668,485.439117 273.810181,487.577789 
	C267.496002,494.009644 261.263184,500.521393 254.998627,507.001953 
	C254.247665,507.001556 253.496719,507.001190 252.580170,506.741425 
	C256.242340,501.612549 260.070068,496.743073 263.897797,491.873596 
	C263.897797,491.873596 263.937347,491.943359 264.110535,491.800262 
	C264.515686,491.393524 264.747681,491.129913 264.979675,490.866302 
	C264.979675,490.866302 264.981995,490.983490 265.128754,490.813934 
	C265.505646,490.374054 265.735809,490.103729 265.965942,489.833374 
	C265.965912,489.833374 265.933990,489.936493 266.164825,489.800049 
	C266.889496,489.043762 267.383331,488.423920 267.877136,487.804077 
	C267.877136,487.804077 267.878082,487.873016 268.184692,487.796082 
	C269.226959,487.354431 270.118958,487.148346 270.674591,486.600861 
	C277.510498,479.864777 284.355194,473.135010 291.036652,466.247467 
	C292.082733,465.169098 292.329224,463.315033 292.945435,461.819672 
z"/>
<path fill="#4BC18C" opacity="1.000000" stroke="none" 
	d="
M407.264099,477.706970 
	C408.437408,478.934845 409.389771,480.528076 410.791992,481.386536 
	C414.733612,483.799683 418.973938,485.735626 422.843048,488.249756 
	C423.959015,488.974945 424.217102,491.020325 424.868500,492.460449 
	C423.217865,493.143860 421.201477,494.797791 419.981567,494.338074 
	C415.375671,492.602478 410.722992,490.625610 406.690674,487.860077 
	C403.952179,485.981903 402.149811,482.686432 400.152008,479.866669 
	C399.965607,479.603546 401.256012,477.653809 402.094788,477.449860 
	C403.464111,477.116882 405.026245,477.576996 406.904083,477.688721 
	C407.301178,477.674957 407.248535,477.736969 407.264099,477.706970 
z"/>
<path fill="#4AC18C" opacity="1.000000" stroke="none" 
	d="
M255.124771,507.298645 
	C261.263184,500.521393 267.496002,494.009644 273.810181,487.577789 
	C275.909668,485.439117 278.218140,483.505615 280.431091,481.478302 
	C280.981049,481.974731 281.531006,482.471130 282.080933,482.967560 
	C278.785828,487.426331 275.490692,491.885132 272.105957,496.682190 
	C272.016357,497.020508 272.005615,497.002106 271.685638,497.112000 
	C268.582062,500.490540 265.798492,503.759216 263.014923,507.027893 
	C261.250275,508.333221 259.485626,509.638580 257.380219,510.999207 
	C256.443268,509.901459 255.847092,508.748383 255.124771,507.298645 
z"/>
<path fill="#4BC18C" opacity="1.000000" stroke="none" 
	d="
M489.754272,522.763306 
	C488.414307,524.447693 486.809662,525.913513 485.097412,527.696533 
	C479.954071,525.522522 474.835358,523.177063 469.962646,520.399902 
	C469.129150,519.924805 468.674103,516.703186 469.204834,516.307678 
	C470.792175,515.124695 473.475830,513.588928 474.801575,514.201965 
	C479.894562,516.556946 484.624329,519.697449 489.754272,522.763306 
z"/>
<path fill="#4BC18C" opacity="1.000000" stroke="none" 
	d="
M454.420471,509.287933 
	C453.057739,510.023804 451.525818,511.141327 450.685364,510.754883 
	C446.787964,508.962921 442.963837,506.935272 439.375885,504.590363 
	C438.203491,503.824097 437.824738,501.843475 437.083038,500.418213 
	C439.039429,499.552734 441.375702,497.544922 442.878174,498.044556 
	C446.766296,499.337524 450.472321,501.474121 453.837158,503.858063 
	C454.804596,504.543488 454.364532,507.215607 454.420471,509.287933 
z"/>
<path fill="#4BC18C" opacity="1.000000" stroke="none" 
	d="
M387.400360,478.305695 
	C384.223328,476.533325 381.275543,475.034363 378.499298,473.266083 
	C377.402252,472.567352 375.746948,470.819336 375.980469,470.331238 
	C376.593353,469.050354 378.456024,467.112671 379.202179,467.353424 
	C384.131561,468.944122 388.918701,470.992950 393.664551,473.090790 
	C393.941406,473.213135 393.823364,475.633362 393.253418,476.002350 
	C391.573212,477.090149 389.573181,477.684021 387.400360,478.305695 
z"/>
<path fill="#49C08B" opacity="1.000000" stroke="none" 
	d="
M512.012207,513.993896 
	C512.768127,515.639771 513.994568,517.262085 514.078918,518.941650 
	C514.120361,519.765869 511.902954,521.541321 510.956482,521.384583 
	C509.464386,521.137512 508.103638,519.715515 506.831268,518.623169 
	C505.360413,517.360474 503.829071,516.068298 502.729126,514.504028 
	C501.795044,513.175720 500.951965,511.432434 500.983673,509.891571 
	C501.007355,508.742676 502.552368,506.648499 503.312836,506.695831 
	C504.869080,506.792633 506.558990,507.807617 507.813721,508.886597 
	C509.294525,510.160004 510.373291,511.900909 511.513855,513.786011 
	C510.725464,514.835388 510.049622,515.537964 509.373779,516.240540 
	C509.819885,516.525146 510.265991,516.809692 510.712097,517.094299 
	C511.145447,516.060852 511.578827,515.027344 512.012207,513.993896 
z"/>
<path fill="#46C18B" opacity="1.000000" stroke="none" 
	d="
M332.783203,423.245758 
	C334.110077,423.877197 336.230377,424.897980 336.129639,425.599884 
	C335.900818,427.193542 334.579498,428.630341 333.702301,430.130920 
	C332.857574,429.291931 332.012817,428.452972 331.076294,427.294067 
	C331.512360,425.812866 332.040283,424.651581 332.783203,423.245758 
z"/>
<path fill="#4AC08C" opacity="1.000000" stroke="none" 
	d="
M263.286224,506.835022 
	C265.798492,503.759216 268.582062,500.490540 271.691406,497.118286 
	C269.197266,500.223846 266.377380,503.433014 263.286224,506.835022 
z"/>
<path fill="#4AC18C" opacity="1.000000" stroke="none" 
	d="
M287.233795,481.768433 
	C286.651672,480.482147 286.272461,478.947327 285.893250,477.412476 
	C286.832367,477.458130 287.771515,477.503784 288.871552,477.800049 
	C288.500549,479.207062 287.968628,480.363464 287.233795,481.768433 
z"/>
<path fill="#4AC18C" opacity="1.000000" stroke="none" 
	d="
M243.258499,527.840942 
	C243.786987,527.059631 244.567978,526.104065 245.671234,525.069214 
	C245.166016,525.882263 244.338501,526.774536 243.258499,527.840942 
z"/>
<path fill="#46C18B" opacity="1.000000" stroke="none" 
	d="
M354.014374,413.002350 
	C352.119659,411.535248 350.224945,410.068146 348.346466,408.023315 
	C349.717865,405.994171 350.870239,404.251984 352.462952,403.141266 
	C359.669189,398.115906 361.162262,391.849670 358.066010,383.665833 
	C356.937073,380.681885 357.730560,376.911163 357.894287,373.511322 
	C358.143158,368.344177 358.607605,363.187378 358.980499,358.026184 
	C360.861633,356.211151 362.742798,354.396118 365.123749,352.279785 
	C365.828522,351.956787 366.033508,351.935059 366.238525,351.913361 
	C366.531433,351.955505 366.759033,352.100250 367.224854,352.739838 
	C368.681458,352.743500 369.834595,352.354950 370.987701,351.966400 
	C370.987701,351.966400 370.994202,352.008118 371.412720,351.996216 
	C379.954987,351.932892 388.078766,351.881500 396.202545,351.830078 
	C396.202545,351.830109 396.088135,351.855560 396.260162,352.069031 
	C398.018494,352.268921 400.194489,352.919769 401.088623,352.126251 
	C404.881775,348.759766 408.413971,345.072693 411.822876,341.304932 
	C420.611298,331.591431 429.283630,321.772919 438.403687,312.001221 
	C441.635376,311.917542 443.943207,312.507477 444.006348,316.011993 
	C433.578156,327.805328 423.285492,339.722656 412.660614,351.336060 
	C407.849762,356.594452 404.877991,361.572754 408.496918,368.916412 
	C411.796417,375.611877 410.092987,382.636841 407.524811,389.209045 
	C405.976593,393.170929 406.598846,396.345490 409.273041,399.277710 
	C414.282837,404.770844 419.391144,410.174194 424.728638,415.808655 
	C424.813354,419.054626 425.841583,422.837372 420.258911,422.690033 
	C415.056030,416.806061 410.532837,411.082672 405.695831,405.638062 
	C402.428986,401.960846 398.625885,399.954987 393.290710,402.216583 
	C387.130341,404.827972 380.808960,404.983978 374.442566,402.011780 
	C370.271484,400.064545 365.876190,400.384308 362.386536,403.850952 
	C359.456757,406.761444 356.794861,409.941589 354.014374,413.002350 
z"/>
<path fill="#49C08B" opacity="1.000000" stroke="none" 
	d="
M444.330200,315.904480 
	C443.943207,312.507477 441.635376,311.917542 438.529236,311.669861 
	C438.467529,310.177643 438.681610,309.021637 438.895691,307.865631 
	C438.895691,307.865631 438.921783,307.892365 438.902069,307.879395 
	C442.223999,305.352051 445.643250,302.932770 448.880554,300.290527 
	C451.111603,298.469604 453.090668,296.339935 455.305664,294.230804 
	C458.554291,300.444946 453.419006,310.158936 444.330200,315.904480 
z"/>
<path fill="#4BC18C" opacity="1.000000" stroke="none" 
	d="
M469.763916,277.247345 
	C470.239197,278.142548 470.395264,279.336060 470.788788,280.445251 
	C471.206970,281.623901 471.850311,282.722687 472.710815,283.934937 
	C471.551758,285.967773 470.397797,288.386780 468.485229,289.705811 
	C467.293915,290.527466 464.955872,289.686371 463.132446,289.591522 
	C463.327972,287.969696 463.041321,286.050690 463.819580,284.788055 
	C465.429260,282.176514 467.605774,279.914398 469.763916,277.247345 
z"/>
<path fill="#4FB286" opacity="1.000000" stroke="none" 
	d="
M487.149841,253.827545 
	C487.128113,253.686829 487.298706,253.381729 487.716736,252.972504 
	C487.756866,253.133316 487.549530,253.398239 487.149841,253.827545 
z"/>
<path fill="#4FB286" opacity="1.000000" stroke="none" 
	d="
M209.060913,512.471130 
	C213.795532,515.621704 214.035400,519.024597 209.419281,521.908447 
	C209.063568,518.957092 209.055435,515.939758 209.060913,512.471130 
z"/>
<path fill="#4FB286" opacity="1.000000" stroke="none" 
	d="
M358.707947,357.835022 
	C358.607605,363.187378 358.143158,368.344177 357.894287,373.511322 
	C357.730560,376.911163 356.937073,380.681885 358.066010,383.665833 
	C361.162262,391.849670 359.669189,398.115906 352.462952,403.141266 
	C350.870239,404.251984 349.717865,405.994171 348.170227,407.719116 
	C345.884735,409.304871 343.791779,410.617126 341.350464,411.972717 
	C346.003143,406.692291 350.919495,401.284973 356.048584,396.087585 
	C357.986572,394.123810 358.866669,392.740631 357.462097,389.756165 
	C353.587982,381.524292 353.632233,373.112640 357.502289,364.694244 
	C358.109650,363.373016 357.738281,360.717346 356.758820,359.687256 
	C346.326904,348.716156 335.610413,338.015961 325.151672,327.069794 
	C323.005676,324.823761 321.423309,325.272186 319.136078,326.518494 
	C301.033264,336.382812 282.879181,346.153046 264.385101,356.012604 
	C265.341156,354.882996 266.509644,353.463226 267.988342,352.540680 
	C276.812592,347.035583 285.633728,341.517487 294.610199,336.267639 
	C299.451355,333.436340 305.205078,331.859528 309.421051,328.360107 
	C312.904816,325.468445 316.355927,323.500183 320.804382,322.249176 
	C324.955017,325.395782 329.055328,328.600861 332.772797,332.201202 
	C341.425049,340.580872 349.892853,349.150940 358.707947,357.835022 
z"/>
<path fill="#4FB286" opacity="1.000000" stroke="none" 
	d="
M263.594696,492.016327 
	C260.070068,496.743073 256.242340,501.612549 252.204712,506.741150 
	C249.450180,509.807800 246.905563,512.615356 243.902710,515.883606 
	C241.625122,518.227112 239.805786,520.109985 237.986450,521.992798 
	C237.047501,522.933655 236.161270,523.934998 235.161133,524.805542 
	C228.342804,530.740417 226.187286,530.947083 219.175446,525.085205 
	C217.663177,523.820984 216.979950,520.907288 216.915237,518.723755 
	C216.818604,515.464417 217.959946,512.179810 217.969131,508.904236 
	C218.058365,477.125549 217.990845,445.346466 218.081451,413.567810 
	C218.088196,411.199463 218.969513,408.833588 219.752853,406.244751 
	C220.068863,443.654541 220.042786,481.286285 220.180252,518.917419 
	C220.187317,520.845215 221.104538,523.863892 222.454315,524.471069 
	C225.525574,525.852539 228.622345,528.468872 232.484406,524.178345 
	C242.387924,513.176147 252.976746,502.790924 263.594696,492.016327 
z"/>
<path fill="#4FB286" opacity="1.000000" stroke="none" 
	d="
M295.698578,292.813293 
	C299.099945,296.268738 302.226318,299.529785 305.674683,302.899231 
	C308.582916,306.108521 311.468628,309.018738 313.619415,312.396851 
	C314.584351,313.912445 314.078339,316.364594 314.113342,318.692871 
	C310.443939,323.086914 306.149597,325.471100 300.588043,325.904999 
	C298.099609,326.099121 295.703430,327.577026 293.283661,328.519318 
	C291.159424,329.346497 289.060730,330.239319 286.511963,331.079407 
	C286.073181,331.055725 285.941040,330.919464 286.170135,330.670929 
	C295.348907,325.476196 304.298584,320.529999 313.764435,315.298553 
	C311.923767,313.270538 310.546143,311.669464 309.081268,310.152618 
	C301.007996,301.792847 292.861328,293.503296 284.838043,285.095978 
	C272.128387,271.778015 259.496368,258.385986 246.831497,245.025284 
	C248.701355,246.333145 250.753830,247.444229 252.410721,248.981598 
	C261.512238,257.426575 270.538483,265.953339 279.525604,274.520142 
	C280.563385,275.509369 281.194031,276.923920 282.022095,278.135345 
	C282.851532,279.348785 283.454468,281.266632 284.569275,281.638367 
	C288.941315,283.096222 291.037567,286.453400 292.970764,290.187195 
	C293.474579,291.160248 294.589417,291.816895 295.698578,292.813293 
z"/>
<path fill="#4FB286" opacity="1.000000" stroke="none" 
	d="
M236.915863,231.668793 
	C239.612396,235.463486 242.217499,238.925674 244.538452,242.615540 
	C240.209686,238.657806 235.900360,234.691666 232.198257,230.222519 
	C228.802460,226.123199 225.791016,229.146179 222.961136,230.361847 
	C221.584839,230.953064 220.216797,233.436340 220.210236,235.068573 
	C220.058136,273.015350 220.093613,310.962921 220.024689,348.979279 
	C219.954971,349.048218 219.816071,349.186646 219.816071,349.186646 
	C219.218857,347.364960 218.193909,345.566162 218.094971,343.717804 
	C217.519180,332.960266 216.866501,322.192230 216.822449,311.425385 
	C216.787338,302.846680 217.951233,294.263824 217.934479,285.684052 
	C217.901459,268.776062 217.462601,251.867981 217.082825,234.962387 
	C217.010803,231.756332 217.886444,229.505081 221.090012,228.367416 
	C222.479477,227.873962 223.871017,227.155243 225.007507,226.227554 
	C227.548157,224.153641 229.557571,224.120667 231.741043,226.855728 
	C233.128830,228.594070 235.109589,229.859024 236.915863,231.668793 
z"/>
<path fill="#4FB286" opacity="1.000000" stroke="none" 
	d="
M241.907867,368.286224 
	C242.443497,371.918884 243.031403,375.730408 242.840668,379.502563 
	C242.194992,392.272278 234.290390,401.529266 220.385651,405.950500 
	C221.463242,404.798462 222.691315,403.060638 224.360855,402.325836 
	C236.764801,396.866882 241.312698,386.510284 240.818008,373.467529 
	C240.754990,371.806366 241.326019,370.121124 241.907867,368.286224 
z"/>
<path fill="#4FB286" opacity="1.000000" stroke="none" 
	d="
M286.139313,331.123779 
	C283.292419,333.329651 280.564209,335.800537 277.429962,337.539612 
	C269.627106,341.869202 261.653778,345.893646 253.709915,349.964569 
	C252.558975,350.554413 251.193588,350.725861 249.469696,351.046448 
	C249.011932,351.001953 248.842682,350.819824 249.066605,350.565765 
	C261.507355,343.847626 273.724213,337.383545 285.941040,330.919464 
	C285.941040,330.919464 286.073181,331.055725 286.139313,331.123779 
z"/>
<path fill="#4FB286" opacity="1.000000" stroke="none" 
	d="
M249.096527,351.093048 
	C246.496658,353.373291 244.043716,355.995544 241.045731,357.598175 
	C239.072510,358.652954 235.846817,359.196503 233.997528,358.295380 
	C229.156662,355.936493 224.763336,352.659271 220.003845,349.467377 
	C219.816071,349.186646 219.954971,349.048218 220.371399,349.093811 
	C224.948196,351.378479 229.035965,353.772980 233.309387,355.770233 
	C234.753326,356.445129 236.903748,356.699646 238.320541,356.128113 
	C241.950928,354.663605 245.350693,352.627411 248.842682,350.819824 
	C248.842682,350.819824 249.011932,351.001953 249.096527,351.093048 
z"/>
<path fill="#4FB286" opacity="1.000000" stroke="none" 
	d="
M263.690552,356.071808 
	C256.988251,360.033447 249.904068,364.021881 242.474060,368.100220 
	C242.708923,367.232300 243.059265,365.813934 243.906921,365.389984 
	C250.319275,362.183136 256.829193,359.171326 263.690552,356.071808 
z"/>
<path fill="#4AC18C" opacity="1.000000" stroke="none" 
	d="
M238.343704,521.942627 
	C239.805786,520.109985 241.625122,518.227112 243.712219,516.154419 
	C242.220306,517.940491 240.460632,519.916443 238.343704,521.942627 
z"/>
<path fill="#4FB286" opacity="1.000000" stroke="none" 
	d="
M438.601654,308.026184 
	C438.681610,309.021637 438.467529,310.177643 438.127899,311.665009 
	C429.283630,321.772919 420.611298,331.591431 411.822876,341.304932 
	C408.413971,345.072693 404.881775,348.759766 401.088623,352.126251 
	C400.194489,352.919769 398.018494,352.268921 396.247620,352.011780 
	C397.967163,350.842743 400.383606,350.411713 401.695679,348.973297 
	C414.007416,335.476105 426.130219,321.806549 438.601654,308.026184 
z"/>
<path fill="#4FB286" opacity="1.000000" stroke="none" 
	d="
M365.040100,350.547546 
	C362.977539,349.688873 360.775513,348.525146 358.017883,347.007050 
	C356.311768,346.096069 355.161224,345.539490 354.010681,344.982880 
	C349.361786,339.244781 344.726227,333.495819 340.057220,327.774139 
	C338.285095,325.602478 336.232300,323.624786 334.727783,321.288055 
	C334.170898,320.423126 334.820068,318.781647 335.200592,317.365417 
	C336.335815,318.990631 336.823792,321.090546 338.102356,322.443268 
	C346.942932,331.796783 355.948212,340.994598 365.040100,350.547546 
z"/>
<path fill="#4FB286" opacity="1.000000" stroke="none" 
	d="
M348.636475,308.041565 
	C350.863770,306.840637 352.728790,305.689636 354.804169,304.290314 
	C358.789642,302.723846 362.564728,301.405762 366.734985,300.092926 
	C358.688965,304.746674 350.247803,309.395203 341.448792,314.100861 
	C343.485382,312.135834 345.879791,310.113678 348.636475,308.041565 
z"/>
<path fill="#4FB286" opacity="1.000000" stroke="none" 
	d="
M395.961548,351.544373 
	C388.078766,351.881500 379.954987,351.932892 371.397888,351.980896 
	C379.092651,347.471008 387.368866,348.066071 395.961548,351.544373 
z"/>
<path fill="#4FB286" opacity="1.000000" stroke="none" 
	d="
M335.108276,316.348938 
	C336.823059,315.382477 338.621948,314.759155 340.786499,314.123535 
	C339.444427,315.143463 337.736755,316.175720 335.702026,317.291321 
	C335.314087,317.147156 335.253235,316.919617 335.108276,316.348938 
z"/>
<path fill="#4FB286" opacity="1.000000" stroke="none" 
	d="
M367.397461,300.107239 
	C368.167236,299.449829 369.270172,298.760254 370.726257,298.062927 
	C369.963135,298.728455 368.846893,299.401733 367.397461,300.107239 
z"/>
<path fill="#4FB286" opacity="1.000000" stroke="none" 
	d="
M370.648132,352.004578 
	C369.834595,352.354950 368.681458,352.743500 367.289062,352.937012 
	C368.136078,352.508911 369.222321,352.275818 370.648132,352.004578 
z"/>
<path fill="#4FB286" opacity="1.000000" stroke="none" 
	d="
M366.140869,351.658691 
	C366.033508,351.935059 365.828522,351.956787 365.315674,352.005371 
	C365.024689,351.831696 365.041595,351.631134 365.103760,351.131287 
	C365.447113,351.022705 365.745178,351.213348 366.140869,351.658691 
z"/>
<path fill="#050A10" opacity="1.000000" stroke="none" 
	d="
M249.066605,350.565765 
	C245.350693,352.627411 241.950928,354.663605 238.320541,356.128113 
	C236.903748,356.699646 234.753326,356.445129 233.309387,355.770233 
	C229.035965,353.772980 224.948196,351.378479 220.441101,349.024841 
	C220.093613,310.962921 220.058136,273.015350 220.210236,235.068573 
	C220.216797,233.436340 221.584839,230.953064 222.961136,230.361847 
	C225.791016,229.146179 228.802460,226.123199 232.198257,230.222519 
	C235.900360,234.691666 240.209686,238.657806 244.559540,242.975250 
	C244.864761,243.107269 244.918671,243.060532 244.971466,243.303223 
	C245.329620,243.739838 245.634995,243.933746 245.940384,244.127640 
	C245.998260,244.438049 246.156647,244.683609 246.623535,244.944809 
	C259.496368,258.385986 272.128387,271.778015 284.838043,285.095978 
	C292.861328,293.503296 301.007996,301.792847 309.081268,310.152618 
	C310.546143,311.669464 311.923767,313.270538 313.764435,315.298553 
	C304.298584,320.529999 295.348907,325.476196 286.170135,330.670929 
	C273.724213,337.383545 261.507355,343.847626 249.066605,350.565765 
z"/>
<path fill="#4FB286" opacity="1.000000" stroke="none" 
	d="
M245.784637,243.920868 
	C245.634995,243.933746 245.329620,243.739838 244.947586,243.276718 
	C245.123581,243.243042 245.376236,243.478577 245.784637,243.920868 
z"/>
<path fill="#46C18B" opacity="1.000000" stroke="none" 
	d="
M353.887817,345.257629 
	C355.161224,345.539490 356.311768,346.096069 357.738892,346.814636 
	C356.954468,347.439087 355.893433,347.901550 354.832397,348.364014 
	C354.476593,347.420135 354.120758,346.476257 353.887817,345.257629 
z"/>
<path fill="#4FB286" opacity="1.000000" stroke="none" 
	d="
M292.633392,461.956512 
	C292.329224,463.315033 292.082733,465.169098 291.036652,466.247467 
	C284.355194,473.135010 277.510498,479.864777 270.674591,486.600861 
	C270.118958,487.148346 269.226959,487.354431 268.150269,487.793945 
	C275.979980,479.276947 284.150665,470.685150 292.633392,461.956512 
z"/>
<path fill="#4FB286" opacity="1.000000" stroke="none" 
	d="
M267.594421,487.916504 
	C267.383331,488.423920 266.889496,489.043762 266.113312,489.783997 
	C266.324524,489.279205 266.818115,488.654053 267.594421,487.916504 
z"/>
<path fill="#4FB286" opacity="1.000000" stroke="none" 
	d="
M264.711853,490.957947 
	C264.747681,491.129913 264.515686,491.393524 264.075623,491.819977 
	C264.059692,491.671722 264.251862,491.360626 264.711853,490.957947 
z"/>
<path fill="#4FB286" opacity="1.000000" stroke="none" 
	d="
M265.690674,489.920502 
	C265.735809,490.103729 265.505646,490.374054 265.070129,490.815002 
	C265.048340,490.659637 265.231873,490.333618 265.690674,489.920502 
z"/>
<path fill="#4FB286" opacity="1.000000" stroke="none" 
	d="
M353.825195,413.276459 
	C356.794861,409.941589 359.456757,406.761444 362.386536,403.850952 
	C365.876190,400.384308 370.271484,400.064545 374.442566,402.011780 
	C380.808960,404.983978 387.130341,404.827972 393.290710,402.216583 
	C398.625885,399.954987 402.428986,401.960846 405.695831,405.638062 
	C410.532837,411.082672 415.056030,416.806061 419.864380,422.705933 
	C420.651794,424.463745 421.287689,425.926331 421.954834,427.736328 
	C415.273010,420.705536 408.476807,413.400421 401.895386,405.906586 
	C399.810486,403.532593 398.324677,402.541321 394.877808,404.028564 
	C387.077332,407.394318 378.899353,407.302643 371.169464,403.564972 
	C368.341797,402.197723 366.744690,402.663330 364.766876,404.762787 
	C357.462341,412.516785 350.026917,420.147491 342.328491,427.955566 
	C344.185455,425.057739 346.260956,421.955505 348.556946,419.026062 
	C350.087341,417.073425 351.932037,415.367126 353.825195,413.276459 
z"/>
<path fill="#4FB286" opacity="1.000000" stroke="none" 
	d="
M424.860413,431.403076 
	C430.058899,435.921692 435.580383,440.563202 440.600769,445.694946 
	C443.073029,448.222015 444.618439,451.655914 446.618103,455.038208 
	C439.427612,447.507324 432.202240,439.617676 424.860413,431.403076 
z"/>
<path fill="#4FB286" opacity="1.000000" stroke="none" 
	d="
M345.907013,445.643860 
	C342.529724,444.642181 338.813354,443.648773 335.467834,441.932495 
	C333.998932,441.178864 332.274658,438.789124 332.492371,437.436157 
	C332.749084,435.840759 334.983704,434.563660 336.729065,433.113159 
	C333.318054,439.012085 333.324280,438.999603 340.034729,442.343140 
	C341.953766,443.299286 343.825317,444.350647 345.907013,445.643860 
z"/>
<path fill="#4FB286" opacity="1.000000" stroke="none" 
	d="
M466.984070,478.356659 
	C471.846619,479.225983 474.022064,483.132141 475.912903,487.704712 
	C472.998596,484.934052 470.050964,481.804901 466.984070,478.356659 
z"/>
<path fill="#4FB286" opacity="1.000000" stroke="none" 
	d="
M449.923096,459.379425 
	C452.832886,462.159119 455.854553,465.262238 458.904083,468.725586 
	C455.966309,465.958130 453.000671,462.830475 449.923096,459.379425 
z"/>
<path fill="#4FB286" opacity="1.000000" stroke="none" 
	d="
M460.950378,471.414185 
	C462.530975,472.839081 464.222870,474.578461 465.959229,476.674316 
	C464.356384,475.263428 462.709045,473.496033 460.950378,471.414185 
z"/>
<path fill="#4FB286" opacity="1.000000" stroke="none" 
	d="
M446.611603,455.436829 
	C446.928833,455.585358 447.333282,456.037140 447.859375,456.766205 
	C447.553589,456.609009 447.126221,456.174530 446.611603,455.436829 
z"/>
<path fill="#4FB286" opacity="1.000000" stroke="none" 
	d="
M422.937805,429.315460 
	C423.106201,429.286560 423.368408,429.521912 423.790100,429.968597 
	C423.643585,429.979858 423.337616,429.779785 422.937805,429.315460 
z"/>
<path fill="#4FB286" opacity="1.000000" stroke="none" 
	d="
M476.998901,489.278534 
	C477.169739,489.248627 477.421509,489.484650 477.825226,489.931183 
	C477.678040,489.942627 477.378937,489.743530 476.998901,489.278534 
z"/>
<path fill="#4FB286" opacity="1.000000" stroke="none" 
	d="
M476.008423,488.273956 
	C476.177460,488.237671 476.429840,488.458740 476.834381,488.881470 
	C476.688293,488.899170 476.390045,488.715240 476.008423,488.273956 
z"/>
<path fill="#4FB286" opacity="1.000000" stroke="none" 
	d="
M459.983887,470.277618 
	C460.153656,470.250458 460.408356,470.493713 460.819916,470.951172 
	C460.674133,470.959595 460.371460,470.753815 459.983887,470.277618 
z"/>
<path fill="#4FB286" opacity="1.000000" stroke="none" 
	d="
M458.980164,469.283752 
	C459.164062,469.242096 459.419281,469.469818 459.832123,469.901154 
	C459.677002,469.920898 459.364258,469.737030 458.980164,469.283752 
z"/>
<path fill="#4FB286" opacity="1.000000" stroke="none" 
	d="
M448.032288,457.265015 
	C448.198883,457.237762 448.442841,457.466370 448.831024,457.900635 
	C448.686707,457.911163 448.398163,457.715973 448.032288,457.265015 
z"/>
<path fill="#4FB286" opacity="1.000000" stroke="none" 
	d="
M340.285583,429.985168 
	C340.213654,429.786499 340.430603,429.537781 340.884521,429.174347 
	C340.902374,429.319366 340.720032,429.611206 340.285583,429.985168 
z"/>
<path fill="#4FB286" opacity="1.000000" stroke="none" 
	d="
M337.272583,433.019714 
	C337.240875,432.844788 337.475281,432.593903 337.918823,432.193115 
	C337.931549,432.343414 337.735138,432.643616 337.272583,433.019714 
z"/>
<path fill="#46C18C" opacity="1.000000" stroke="none" 
	d="
M512.006165,513.996887 
	C511.578827,515.027344 511.145447,516.060852 510.712097,517.094299 
	C510.265991,516.809692 509.819885,516.525146 509.373779,516.240540 
	C510.049622,515.537964 510.725464,514.835388 511.703674,514.060303 
	C512.006042,513.987793 512.000122,513.999878 512.006165,513.996887 
z"/>
</svg>